<svg viewBox="0 0 73 82" width="73px" height="82px" version="1.1" xmlns="http://www.w3.org/2000/svg" xmlns:xlink="http://www.w3.org/1999/xlink">
    <g id="svg-proposals" fill="none" fill-rule="evenodd">
        <g transform="translate(-1117 -168)">
            <g transform="translate(1119 170)">
                <polyline points="45.98 79 0 79 0 0 55.259 0 55.259 54.582" fill="#F8F8F8" />
                <polyline points="45.143 78.037 0 78.037 0 9.237e-14 54.672 0 54.672 51.382" stroke="#7D7D7D" stroke-linecap="round" stroke-linejoin="round" stroke-width="3" />
                <path d="m28 7c6.6279 0 12 5.3723 12 12 0 6.6266-5.3721 12-12 12-6.6268 0-12-5.3734-12-12 0-6.6277 5.3732-12 12-12" fill="#73E6FF" />
                <path d="m27.499 11c2.4862 0 4.5005 1.9223 4.5005 4.2926v1.4147c0 2.3703-2.0143 4.2926-4.5005 4.2926-2.4851 0-4.4995-1.9223-4.4995-4.2926v-1.4147c0-2.3703 2.0143-4.2926 4.4995-4.2926" fill="#CDF5FF" />
                <path d="m27.955 23c-3.4378 0.0012343-6.5537 2.044-7.9549 5.2136 4.7 3.6411 11.213 3.7213 16 0.19625-1.3561-3.2758-4.528-5.4098-8.0451-5.4098" fill="#CDF5FF" />
                <path d="m45.105 60.159h-34.858c-0.1362 0-0.2474-0.086816-0.2474-0.19314v-7.7725c0-0.10633 0.11121-0.19314 0.2474-0.19314h34.858c0.1362 0 0.2474 0.086816 0.2474 0.19314v7.7725c0 0.10633-0.11121 0.19314-0.2474 0.19314" fill="#B0E44F" />
                <g transform="translate(42.593 54.626)">
                    <path d="m11.662 15.055l-10.568-10.438c-0.87309-0.86231-0.63407-2.6893 0.24099-3.5536l-0.21728 0.21558c0.87506-0.86426 1.7333-0.12193 2.6064 0.74037l5.3195 5.2538 4.0464-3.9965c1.8094-1.7861 3.6444-2.2621 5.4489-0.47993l5.4825 5.4148c3.5516 3.5078 3.52 8.4397-0.039506 11.955l-0.097778 0.096571c-3.5595 3.5156-9.4627 4.4452-13.014 0.93644l-3.2612-3.22c-1.7837-1.7627-1.5911-4.8724 0.074074-6.7502l-0.01284-0.066331" fill="#fff" />
                    <path d="m11.658 15.055l-10.568-10.438c-0.87309-0.86231-0.63407-2.6893 0.24099-3.5536l-0.21728 0.21558c0.87506-0.86426 1.7333-0.12193 2.6064 0.74037l5.3195 5.2538 4.0464-3.9965c1.8094-1.7861 3.6444-2.2621 5.4489-0.47993l5.4825 5.4148c3.5516 3.5078 3.52 8.4397-0.039506 11.955l-0.097778 0.096571c-3.5595 3.5156-9.4627 4.4452-13.014 0.93644l-3.2612-3.22c-1.7837-1.7627-1.5911-4.8724 0.074074-6.7502l-0.01284-0.066331" stroke="#7D7D7D" stroke-linecap="round" stroke-linejoin="round" stroke-width="2.5" />
                </g>
                <path d="m14.872 43.803l-1.6306-0.91791-1.6316 0.91791c-0.17383 0.097546-0.38617-0.045847-0.35654-0.24289l0.2963-1.9285-1.3402-1.3315c-0.13728-0.13656-0.061235-0.37068 0.13136-0.40189l1.8272-0.29849 0.8563-1.7588c0.087901-0.17851 0.34568-0.17851 0.43259 0l0.85728 1.7588 1.8281 0.29849c0.19259 0.031215 0.26864 0.26533 0.13037 0.40189l-1.3402 1.3315 0.29531 1.9285c0.030617 0.19704-0.18173 0.34044-0.35556 0.24289" fill="#B2B2B2" />
                <path d="m22.886 43.803l-1.6306-0.91791-1.6316 0.91791c-0.17383 0.097546-0.38617-0.045847-0.35654-0.24289l0.2963-1.9285-1.3402-1.3315c-0.13728-0.13656-0.061234-0.37068 0.13037-0.40189l1.8281-0.29849 0.8563-1.7588c0.087901-0.17851 0.34568-0.17851 0.43259 0l0.85728 1.7588 1.8281 0.29849c0.19259 0.031215 0.26864 0.26533 0.13037 0.40189l-1.3402 1.3315 0.29531 1.9285c0.030617 0.19704-0.18173 0.34044-0.35556 0.24289" fill="#B2B2B2" />
                <path d="m30.9 43.803l-1.6306-0.91791-1.6316 0.91791c-0.17383 0.097546-0.38617-0.045847-0.35654-0.24289l0.2963-1.9285-1.3402-1.3315c-0.13827-0.13656-0.061235-0.37068 0.13037-0.40189l1.8281-0.29849 0.8563-1.7588c0.087901-0.17851 0.34568-0.17851 0.43259 0l0.85728 1.7588 1.8281 0.29849c0.1916 0.031215 0.26864 0.26533 0.13037 0.40189l-1.3402 1.3315 0.29531 1.9285c0.030617 0.19704-0.18173 0.34044-0.35556 0.24289" fill="#B2B2B2" />
                <path d="m38.913 43.803l-1.6316-0.91791-1.6306 0.91791c-0.17383 0.097546-0.38617-0.045847-0.35654-0.24289l0.2963-1.9285-1.3402-1.3315c-0.13827-0.13656-0.062222-0.37068 0.13037-0.40189l1.8281-0.29849 0.8563-1.7588c0.087901-0.17851 0.34568-0.17851 0.43259 0l0.85728 1.7588 1.8281 0.29849c0.1916 0.031215 0.26864 0.26533 0.13037 0.40189l-1.3402 1.3315 0.29531 1.9285c0.030617 0.19704-0.18173 0.34044-0.35556 0.24289" fill="#B2B2B2" />
                <path d="m46.927 43.803l-1.6316-0.91791-1.6306 0.91791c-0.17383 0.097546-0.38617-0.045847-0.35654-0.24289l0.2963-1.9285-1.3402-1.3315c-0.13827-0.13656-0.062222-0.37068 0.13037-0.40189l1.8281-0.29849 0.8563-1.7588c0.087901-0.17851 0.34568-0.17851 0.43259 0l0.85728 1.7588 1.8281 0.29849c0.1916 0.031215 0.26864 0.26533 0.13037 0.40189l-1.3402 1.3315 0.29531 1.9285c0.030617 0.19704-0.18173 0.34044-0.35556 0.24289" fill="#B2B2B2" />
            </g>
        </g>
    </g>
</svg>