<svg viewBox="0 0 91 83" width="91px" height="83px" version="1.1" xmlns="http://www.w3.org/2000/svg" xmlns:xlink="http://www.w3.org/1999/xlink">
    <g id="svg-payment" fill="none" fill-rule="evenodd">
        <g transform="translate(-1693 -168)">
            <g transform="translate(1695 170)">
                <path d="m76.069 37.85l-51.578 14.665c-1.5157 0.43136-3.092-0.45272-3.5217-1.9742l-9.0185-31.964c-0.42971-1.5215 0.45204-3.105 1.9666-3.5353l51.58-14.665c1.5146-0.43136 3.092 0.45272 3.5206 1.9742l9.0196 31.964c0.42864 1.5215-0.45204 3.1039-1.9677 3.5353"
                      fill="#fff" />
                <path d="m76.067 37.85l-51.578 14.665c-1.5157 0.43136-3.092-0.45272-3.5217-1.9742l-9.0185-31.964c-0.42971-1.5215 0.45204-3.105 1.9666-3.5353l51.58-14.665c1.5146-0.43136 3.092 0.45272 3.5206 1.9742l9.0196 31.964c0.42864 1.5215-0.45204 3.1039-1.9677 3.5353z"
                      stroke="#B2B2B2" stroke-linecap="round" stroke-linejoin="round" stroke-width="3" />
                <polygon points="71.439 15.161 16.786 30.701 14.45 22.421 69.103 6.8815" fill="#C0E972" />
                <path d="m33.785 41.4l28.565-8.1223" stroke="#919191" stroke-linecap="round" stroke-linejoin="round" stroke-width="3.24"
                />
                <path d="m58.992 26.701l8.1112-2.3063" stroke="#919191" stroke-linecap="round" stroke-linejoin="round" stroke-width="3.24"
                />
                <g transform="translate(16 32)">
                    <path d="m65.124 42.75h-58.263c-3.375 0-6.112-2.6236-6.112-5.86v-30.28c0-3.2364 2.737-5.86 6.112-5.86h58.263c3.375 0 6.111 2.6236 6.111 5.86v30.28c0 3.2364-2.736 5.86-6.111 5.86"
                          fill="#F2F2F2" />
                    <path d="m65.125 42.75h-58.263c-3.375 0-6.112-2.6236-6.112-5.86v-30.28c0-3.2364 2.737-5.86 6.112-5.86h58.263c3.375 0 6.111 2.6236 6.111 5.86v30.28c0 3.2364-2.736 5.86-6.111 5.86z"
                          stroke="#7D7D7D" stroke-linecap="round" stroke-linejoin="round" stroke-width="3" />
                    <path d="m55 15.91h9c-0.075935-0.20355-0.15892-4.3116-0.24854-4.5037-0.95234-2.0417-2.6535-3.4062-4.5986-3.4062h-4.1528v7.9099z"
                          fill="#73E6FF" />
                    <path d="m55 18.761v6.2388h3.9089c2.8117 0 5.0911-1.8544 5.0911-4.1419v-2.0968h-9z" fill="#73E6FF" />
                    <path d="m52.979 19.33v-2.8303h0.021419v-2.7188h-0.021419v-2.8303h0.021419v-2.9509h-0.54618c-3.012 0-5.4538 2.3659-5.4538 5.2844v6.4298c0 2.9198 2.4418 5.2857 5.4538 5.2857h0.54618v-5.6697h-0.021419z"
                          fill="#73E6FF" />
                    <polygon points="10.374 30.857 19.202 30.857 19.202 26.579 10.374 26.579" fill="#B2B2B2" />
                </g>
                <path d="m17.339 79.139c-9.5769 0-17.339-7.7934-17.339-17.407 0-9.6139 7.7624-17.407 17.339-17.407 9.5769 0 17.34 7.7934 17.34 17.407 0 9.6139-7.7634 17.407-17.34 17.407z"
                      fill="#fff" />
                <path d="m34.68 61.732c0 9.6139-7.7634 17.407-17.34 17.407-9.5769 0-17.339-7.7934-17.339-17.407 0-9.6139 7.7624-17.407 17.339-17.407 9.5769 0 17.34 7.7934 17.34 17.407z"
                      stroke="#7E7E7E" stroke-width="3.24" />
                <polygon points="22.971 53 26 55.011 16.04 69 9 63.635 11.276 60.848 15.235 63.864" fill="#6FDA44" />
            </g>
        </g>
    </g>
</svg>